<?xml version="1.0" encoding="UTF-8"?>
<svg version="1.1" xmlns="http://www.w3.org/2000/svg" width="176" height="78">
<path d="M0 0 C3.32637919 3.57561798 4.06910817 6.87185498 4.35546875 11.64453125 C1.38447791 14.16477185 -0.85753226 15.14142192 -4.6875 15.77734375 C-5.67097412 15.94322998 -6.65444824 16.10911621 -7.66772461 16.2800293 C-8.7119458 16.44156494 -9.75616699 16.60310059 -10.83203125 16.76953125 C-11.90396729 16.94202393 -12.97590332 17.1145166 -14.08032227 17.29223633 C-21.75366192 18.47738114 -29.35202219 19.19550513 -37.10546875 19.49609375 C-41.32469322 19.67305901 -45.4574951 20.11163574 -49.64453125 20.64453125 C-48.94472413 22.12775077 -48.23403667 23.60583609 -47.51953125 25.08203125 C-46.92785156 26.31759766 -46.92785156 26.31759766 -46.32421875 27.578125 C-44.03375119 31.75955996 -41.28915657 35.67759327 -38.64453125 39.64453125 C-38.64453125 49.21453125 -38.64453125 58.78453125 -38.64453125 68.64453125 C-71.97453125 68.64453125 -105.30453125 68.64453125 -139.64453125 68.64453125 C-139.64453125 38.64453125 -139.64453125 38.64453125 -132.64453125 28.64453125 C-133.96453125 27.98453125 -135.28453125 27.32453125 -136.64453125 26.64453125 C-135.89453125 21.89453125 -135.89453125 21.89453125 -133.64453125 19.64453125 C-130.99682617 19.46850586 -130.99682617 19.46850586 -127.625 19.546875 C-111.62640828 19.65190313 -99.67662541 17.99707962 -85.14648438 10.77832031 C-80.84732664 8.83010715 -76.37675226 7.57452617 -71.83203125 6.33203125 C-70.9608667 6.09355469 -70.08970215 5.85507813 -69.19213867 5.609375 C-63.11433138 3.98234501 -57.01036696 2.44645828 -50.89282227 0.97583008 C-47.58909808 0.17424428 -44.43709301 -0.75135695 -41.26953125 -1.98046875 C-29.23571402 -6.24002108 -10.35552525 -8.53531416 0 0 Z " fill="#E4AC5B" transform="translate(160.64453125,5.35546875)"/>
<path d="M0 0 C3.32637919 3.57561798 4.06910817 6.87185498 4.35546875 11.64453125 C1.28746576 14.27740124 -1.06653667 15.17067166 -5.0390625 15.8125 C-6.07740234 15.98330078 -7.11574219 16.15410156 -8.18554688 16.33007812 C-9.26513672 16.49572266 -10.34472656 16.66136719 -11.45703125 16.83203125 C-12.52501953 17.00927734 -13.59300781 17.18652344 -14.69335938 17.36914062 C-24.56630523 18.95052156 -33.30775108 19.87617534 -41.9609375 14.09765625 C-45.31531728 11.38534916 -47.33470577 9.49247466 -48.83203125 5.39453125 C-48.64453125 2.64453125 -48.64453125 2.64453125 -47.35546875 1.0703125 C-36.99450752 -7.56382186 -10.25703176 -8.45413306 0 0 Z " fill="#8FBBF4" transform="translate(160.64453125,5.35546875)"/>
<path d="M0 0 C1.58206057 0.00667536 3.16410534 0.0186375 4.74609375 0.03515625 C5.55240234 0.03966797 6.35871094 0.04417969 7.18945312 0.04882812 C9.18753131 0.06065107 11.18557158 0.07858711 13.18359375 0.09765625 C13.18359375 1.41765625 13.18359375 2.73765625 13.18359375 4.09765625 C11.53359375 4.42765625 9.88359375 4.75765625 8.18359375 5.09765625 C8.76109375 5.43539062 9.33859375 5.773125 9.93359375 6.12109375 C11.04734375 6.79011719 11.04734375 6.79011719 12.18359375 7.47265625 C12.92609375 7.91351563 13.66859375 8.354375 14.43359375 8.80859375 C15.01109375 9.23398437 15.58859375 9.659375 16.18359375 10.09765625 C16.18359375 10.75765625 16.18359375 11.41765625 16.18359375 12.09765625 C11.21125155 10.60595359 6.76513636 8.49308208 2.18359375 6.09765625 C7.68577927 12.23470933 13.03141185 13.44330788 20.98828125 13.984375 C21.71273437 14.02175781 22.4371875 14.05914062 23.18359375 14.09765625 C23.18359375 15.08765625 23.18359375 16.07765625 23.18359375 17.09765625 C20.21359375 18.74765625 17.24359375 20.39765625 14.18359375 22.09765625 C14.18359375 22.75765625 14.18359375 23.41765625 14.18359375 24.09765625 C18.1212344 24.48181631 20.41851621 24.15127555 23.68359375 22.03515625 C26.33442026 20.38860762 27.03319114 20.0946482 30.30859375 20.16015625 C33.18359375 21.09765625 33.18359375 21.09765625 35.62109375 22.66015625 C38.93483845 24.5190862 41.44626046 24.31749938 45.18359375 24.09765625 C43.04128816 21.79666136 41.15411226 20.08023537 38.43359375 18.47265625 C37.69109375 18.01890625 36.94859375 17.56515625 36.18359375 17.09765625 C36.18359375 16.43765625 36.18359375 15.77765625 36.18359375 15.09765625 C38.6236773 13.87761447 40.46033768 13.88512323 43.18359375 13.72265625 C48.81448507 13.26891204 53.8586831 11.93423064 59.18359375 10.09765625 C55.33440092 14.42799819 51.46069729 16.75373185 46.18359375 19.09765625 C46.18359375 20.08765625 46.18359375 21.07765625 46.18359375 22.09765625 C47.50359375 22.42765625 48.82359375 22.75765625 50.18359375 23.09765625 C50.18359375 24.74765625 50.18359375 26.39765625 50.18359375 28.09765625 C31.37359375 28.09765625 12.56359375 28.09765625 -6.81640625 28.09765625 C-6.81640625 22.81765625 -6.81640625 17.53765625 -6.81640625 12.09765625 C-6.15640625 12.09765625 -5.49640625 12.09765625 -4.81640625 12.09765625 C-4.82800781 11.31519531 -4.83960937 10.53273438 -4.8515625 9.7265625 C-4.86058594 8.71464844 -4.86960937 7.70273437 -4.87890625 6.66015625 C-4.89050781 5.65082031 -4.90210937 4.64148437 -4.9140625 3.6015625 C-4.75563358 -0.46055501 -4.26320223 0.10908911 0 0 Z " fill="#E0AC63" transform="translate(27.81640625,45.90234375)"/>
<path d="M0 0 C0.99 0 1.98 0 3 0 C3.33 0.66 3.66 1.32 4 2 C40.63 2.495 40.63 2.495 78 3 C76.60124636 8.59501455 76.60124636 8.59501455 74 11 C71.27264164 11.3818309 68.94985643 11.50660804 66.22387695 11.45410156 C65.03816101 11.45497772 65.03816101 11.45497772 63.82849121 11.45587158 C61.21464177 11.45308393 58.60193154 11.42196098 55.98828125 11.390625 C54.17653527 11.383165 52.36478122 11.37747093 50.55302429 11.37347412 C45.78361752 11.35819873 41.01469771 11.31890063 36.2454834 11.2746582 C31.37921741 11.23374649 26.51287276 11.21547188 21.64648438 11.1953125 C12.09744225 11.15240813 2.54876161 11.08413384 -7 11 C-5.90902202 9.15878785 -4.80180749 7.32718744 -3.6875 5.5 C-3.07261719 4.4790625 -2.45773438 3.458125 -1.82421875 2.40625 C-1.22222656 1.6121875 -0.62023437 0.818125 0 0 Z " fill="#F2D9AF" transform="translate(28,34)"/>
<path d="M0 0 C5.66358152 0.46233319 9.38513809 1.58500219 14 5 C14.9375 8.25 14.9375 8.25 15 11 C16.32 10.67 17.64 10.34 19 10 C19.08507812 9.23300781 19.17015625 8.46601562 19.2578125 7.67578125 C20 5 20 5 21.6796875 3.41796875 C27.75438738 0.01311028 33.06166273 -1.03801896 40 0 C42.27734375 0.86328125 42.27734375 0.86328125 44 2 C44.75 4.625 44.75 4.625 45 7 C39.93493892 11.28582092 34.6226033 12.22718755 28.125 12.625 C26.97257812 12.69976562 25.82015625 12.77453125 24.6328125 12.8515625 C23.76398438 12.90054688 22.89515625 12.94953125 22 13 C23.99535759 15.10321475 25.69954052 16.45264387 28.1875 18.0625 C29.115625 18.701875 30.04375 19.34125 31 20 C31 20.66 31 21.32 31 22 C25.00601604 23.46791444 25.00601604 23.46791444 22.15234375 22.140625 C21.56582031 21.76421875 20.97929688 21.3878125 20.375 21 C17.28612828 18.76626437 17.28612828 18.76626437 14.4375 19.0625 C11.86670844 19.99466159 11.86670844 19.99466159 9.0625 21.5625 C5.74539085 23.11951042 3.61473619 23.25819544 0 23 C0 21.68 0 20.36 0 19 C2.97 17.35 5.94 15.7 9 14 C9 13.67 9 13.34 9 13 C7.96552734 12.97873047 7.96552734 12.97873047 6.91015625 12.95703125 C0.04930382 12.6088124 -5.5440355 11.39014818 -11 7 C-11.33 6.01 -11.66 5.02 -12 4 C-8.2397015 4.58107632 -5.46964968 5.65199496 -2.1875 7.5625 C-1.39730469 8.01753906 -0.60710938 8.47257812 0.20703125 8.94140625 C0.79871094 9.29074219 1.39039063 9.64007813 2 10 C-0.71327575 7.15635664 -3.69589177 5.12931419 -7 3 C-4.60996728 2.15708668 -3.4145692 1.84615596 -1 2.7421875 C-0.34 3.11601563 0.32 3.48984375 1 3.875 C3.66507647 5.36369506 6.00484233 6.37155174 9 7 C9 6.34 9 5.68 9 5 C8.1646875 4.8453125 8.1646875 4.8453125 7.3125 4.6875 C4.54289253 3.86410318 2.39747583 2.59831722 0 1 C0 0.67 0 0.34 0 0 Z " fill="#D8D6D8" transform="translate(42,48)"/>
<path d="M0 0 C1.32 0 2.64 0 4 0 C3.6875 2.375 3.6875 2.375 3 5 C-0.72160746 7.48107164 -2.59746433 7.24234952 -7.04174805 7.22705078 C-7.75419678 7.22734283 -8.46664551 7.22763489 -9.20068359 7.22793579 C-11.55448607 7.22654296 -13.9079716 7.21098419 -16.26171875 7.1953125 C-17.89410733 7.1915822 -19.52649815 7.18873531 -21.15888977 7.18673706 C-25.45466293 7.17910194 -29.75030079 7.15945452 -34.04602051 7.1373291 C-38.42975026 7.11686805 -42.81350188 7.10773479 -47.19726562 7.09765625 C-55.79823917 7.07620849 -64.39910275 7.04207404 -73 7 C-73.33 6.34 -73.66 5.68 -74 5 C-75.98 5 -77.96 5 -80 5 C-80.33 4.01 -80.66 3.02 -81 2 C-54.27 2 -27.54 2 0 2 C0 1.34 0 0.68 0 0 Z " fill="#D96E24" transform="translate(106,29)"/>
<path d="M0 0 C-0.33 1.65 -0.66 3.3 -1 5 C-1.63389648 5.10022461 -2.26779297 5.20044922 -2.92089844 5.30371094 C-21.04670005 7.78062294 -21.04670005 7.78062294 -38.06640625 14.109375 C-41.01011731 15.46526615 -43.81226783 15.12260508 -47 15 C-47 15.66 -47 16.32 -47 17 C-47.99 17.33 -48.98 17.66 -50 18 C-49.34 18.33 -48.68 18.66 -48 19 C-48 19.99 -48 20.98 -48 22 C-61.2 22 -74.4 22 -88 22 C-87.34 20.68 -86.68 19.36 -86 18 C-85.20118408 18.01683838 -84.40236816 18.03367676 -83.5793457 18.05102539 C-67.61212419 18.26978583 -54.53152545 17.59965161 -39.98046875 10.359375 C-34.74190852 7.75524732 -29.38051895 6.10559097 -23.75 4.5625 C-22.90429443 4.32829346 -22.05858887 4.09408691 -21.18725586 3.8527832 C-5.56636459 -0.3591203 -5.56636459 -0.3591203 0 0 Z " fill="#F0D2CE" transform="translate(113,7)"/>
<path d="M0 0 C0.88171875 0.495 0.88171875 0.495 1.78125 1 C2.92708333 1.66666667 4.07291667 2.33333333 5.21875 3 C7.11646542 4.0653841 9.05089222 5.03250079 11 6 C6.72939787 6.31571114 2.45851151 6.62737734 -1.8125 6.9375 C-3.08520752 7.0303125 -4.35791504 7.123125 -5.66918945 7.21875 C-13.7321933 7.79660454 -21.79206795 8.31092982 -29.87231445 8.57006836 C-34.38688368 8.75740149 -38.58270553 9.45675746 -42.97558594 10.51904297 C-45.62966574 11.14959497 -48.30480622 11.5853548 -51 12 C-51.33 11.34 -51.66 10.68 -52 10 C-49.09399739 8.74335022 -47.20395416 8 -44 8 C-43.76297363 7.3601416 -43.52594727 6.7202832 -43.28173828 6.06103516 C-42 4 -42 4 -39.97216797 3.30224609 C-39.15377441 3.21023926 -38.33538086 3.11823242 -37.4921875 3.0234375 C-36.13480469 2.85328125 -36.13480469 2.85328125 -34.75 2.6796875 C-33.80125 2.57914063 -32.8525 2.47859375 -31.875 2.375 C-25.41852183 1.61964601 -19.2851066 0.66969355 -13 -1 C-11.42397472 -1.29255559 -9.8407485 -1.55260785 -8.25 -1.75 C-7.17492187 -1.89695312 -7.17492187 -1.89695312 -6.078125 -2.046875 C-3.5418749 -1.98966635 -2.1778593 -1.27186983 0 0 Z " fill="#D6806C" transform="translate(118,18)"/>
<path d="M0 0 C26.73 0 53.46 0 81 0 C81 0.33 81 0.66 81 1 C80.28569824 0.99363525 79.57139648 0.98727051 78.83544922 0.98071289 C58.61413781 0.37536441 58.61413781 0.37536441 41 9 C40.0826295 11.62068349 40.0826295 11.62068349 40 14 C38.0625 14.5625 38.0625 14.5625 36 15 C35 14 35 14 34.9375 10.9375 C34.958125 9.968125 34.97875 8.99875 35 8 C34.2575 7.71125 33.515 7.4225 32.75 7.125 C30 6 30 6 27.9375 4.875 C25.74673942 3.72560885 25.74673942 3.72560885 22 4 C24.64 5.32 27.28 6.64 30 8 C30 8.66 30 9.32 30 10 C25.43545749 9.45660208 22.0271824 8.20536179 18 6 C18.66 5.67 19.32 5.34 20 5 C20 3.68 20 2.36 20 1 C11.585 1.495 11.585 1.495 3 2 C2.67 5.63 2.34 9.26 2 13 C1.34 13 0.68 13 0 13 C0 8.71 0 4.42 0 0 Z " fill="#E9BC73" transform="translate(21,45)"/>
<path d="M0 0 C0.66 0.33 1.32 0.66 2 1 C-2.16998625 4.76315833 -5.75009334 7.00503547 -11 9 C-11 9.99 -11 10.98 -11 12 C-9.68 12.33 -8.36 12.66 -7 13 C-7 14.65 -7 16.3 -7 18 C-24.82 18 -42.64 18 -61 18 C-61 17.67 -61 17.34 -61 17 C-59.25976562 16.97873047 -59.25976562 16.97873047 -57.484375 16.95703125 C-48.71127565 16.73123566 -41.48819016 16.13122282 -33.48046875 12.15625 C-30.91209602 10.95902428 -28.82193921 10.26325783 -26 10 C-24.26555483 10.99570001 -22.53247595 11.99667472 -20.84765625 13.07421875 C-17.92673812 14.53776547 -15.1858625 14.26007041 -12 14 C-14.14230559 11.69900511 -16.02948149 9.98257912 -18.75 8.375 C-19.4925 7.92125 -20.235 7.4675 -21 7 C-21 6.34 -21 5.68 -21 5 C-18.53082549 3.76541274 -16.63024523 3.78617033 -13.875 3.625 C-10.10137286 3.32747355 -6.94912298 2.79253588 -3.4375 1.375 C-2.303125 0.92125 -1.16875 0.4675 0 0 Z " fill="#CE8E4D" transform="translate(85,56)"/>
<path d="M0 0 C0.99 1.98 0.99 1.98 2 4 C0.27599315 5.72400685 -2.15066807 5.57857429 -4.5 5.9375 C-8.10510444 6.50806166 -11.64665905 7.11652888 -15.1875 8 C-18.20628737 8.72115476 -21.1827915 9.14922032 -24.265625 9.46484375 C-25.03237549 9.54412109 -25.79912598 9.62339844 -26.58911133 9.70507812 C-28.137233 9.85829695 -29.68662819 9.99921817 -31.23706055 10.12695312 C-33.1706355 10.3170622 -35.08900778 10.64934019 -37 11 C-37.66 11.99 -38.32 12.98 -39 14 C-41.62356462 14.98515378 -44.24524123 15.42238929 -47 16 C-47 16.66 -47 17.32 -47 18 C-48.20124512 18.02505615 -49.40249023 18.0501123 -50.64013672 18.07592773 C-55.08686429 18.16993144 -59.53343307 18.27016917 -63.97998047 18.37231445 C-65.90637504 18.41569001 -67.83280871 18.45736314 -69.75927734 18.49731445 C-72.52453408 18.55495362 -75.2895935 18.61866616 -78.0546875 18.68359375 C-78.9193161 18.70030624 -79.7839447 18.71701874 -80.67477417 18.73423767 C-84.97395852 18.72159896 -84.97395852 18.72159896 -89 20 C-88.67 18.68 -88.34 17.36 -88 16 C-68.2 16.495 -68.2 16.495 -48 17 C-48 16.01 -48 15.02 -48 14 C-49.32 13.67 -50.64 13.34 -52 13 C-50.35 12.67 -48.7 12.34 -47 12 C-47 11.34 -47 10.68 -47 10 C-46.09121094 9.85304688 -46.09121094 9.85304688 -45.1640625 9.703125 C-40.65008638 8.89755388 -36.57311614 7.92594951 -32.375 6.0625 C-25.54377878 3.15652018 -18.28264166 2.19599868 -11 1 C-9.90945312 0.80921875 -8.81890625 0.6184375 -7.6953125 0.421875 C-5.08079349 0.01264594 -2.64116877 -0.07768143 0 0 Z " fill="#EAC3C0" transform="translate(113,12)"/>
<path d="M0 0 C7.51491054 0.62624254 7.51491054 0.62624254 9.90625 2.46875 C12.50732755 4.3710306 14.58317083 4.69739549 17.75 5.1875 C18.73484375 5.34605469 19.7196875 5.50460938 20.734375 5.66796875 C21.48203125 5.77753906 22.2296875 5.88710938 23 6 C23 6.33 23 6.66 23 7 C19.14744143 7.6761872 15.29273043 8.33923092 11.4375 9 C10.35146484 9.19078125 9.26542969 9.3815625 8.14648438 9.578125 C-6.06829897 11.99766259 -6.06829897 11.99766259 -12.75 9.6875 C-13.48734375 9.44386719 -14.2246875 9.20023438 -14.984375 8.94921875 C-17 8 -17 8 -20 5 C-16.37 5 -12.74 5 -9 5 C-8.67 3.68 -8.34 2.36 -8 1 C-5.36 1 -2.72 1 0 1 C0 0.67 0 0.34 0 0 Z " fill="#2B53BA" transform="translate(138,13)"/>
<path d="M0 0 C5.66358152 0.46233319 9.38513809 1.58500219 14 5 C14.9375 8.25 14.9375 8.25 15 11 C17.31 11 19.62 11 22 11 C21.01 12.32 20.02 13.64 19 15 C18.40574219 14.86722656 17.81148437 14.73445313 17.19921875 14.59765625 C12.5773237 13.6128979 8.16123328 12.91434595 3.4375 12.6875 C-2.10185467 12.25412232 -6.64768306 10.50209689 -11 7 C-11.33 6.01 -11.66 5.02 -12 4 C-8.2397015 4.58107632 -5.46964968 5.65199496 -2.1875 7.5625 C-1.39730469 8.01753906 -0.60710938 8.47257812 0.20703125 8.94140625 C0.79871094 9.29074219 1.39039063 9.64007813 2 10 C-0.71327575 7.15635664 -3.69589177 5.12931419 -7 3 C-4.60996728 2.15708668 -3.4145692 1.84615596 -1 2.7421875 C-0.34 3.11601563 0.32 3.48984375 1 3.875 C3.66507647 5.36369506 6.00484233 6.37155174 9 7 C9 6.34 9 5.68 9 5 C8.1646875 4.8453125 8.1646875 4.8453125 7.3125 4.6875 C4.54289253 3.86410318 2.39747583 2.59831722 0 1 C0 0.67 0 0.34 0 0 Z " fill="#D1CCD0" transform="translate(42,48)"/>
<path d="M0 0 C0 0.33 0 0.66 0 1 C-1.11375 1.2475 -2.2275 1.495 -3.375 1.75 C-4.57125 2.1625 -5.7675 2.575 -7 3 C-7.29648438 3.67289062 -7.59296875 4.34578125 -7.8984375 5.0390625 C-8.26195312 5.68617188 -8.62546875 6.33328125 -9 7 C-11.390625 7.5390625 -11.390625 7.5390625 -14.25 7.625 C-18.55110097 7.85461607 -21.91748576 8.60823378 -26 10 C-28.33333333 10 -30.66666667 10 -33 10 C-35.35369807 10.88064927 -35.35369807 10.88064927 -37 12 C-36.67 10.02 -36.34 8.04 -36 6 C-24.68127922 0.86419277 -12.31541378 -0.19548276 0 0 Z " fill="#99D6F7" transform="translate(149,0)"/>
<path d="M0 0 C1.49927441 0.27482163 2.9993435 0.54532821 4.5 0.8125 C8.77791665 1.77521221 11.61167001 3.2198318 15 6 C15 6.66 15 7.32 15 8 C9.00601604 9.46791444 9.00601604 9.46791444 6.15234375 8.140625 C5.56582031 7.76421875 4.97929688 7.3878125 4.375 7 C1.28612828 4.76626437 1.28612828 4.76626437 -1.5625 5.0625 C-4.13329156 5.99466159 -4.13329156 5.99466159 -6.9375 7.5625 C-10.25460915 9.11951042 -12.38526381 9.25819544 -16 9 C-16 7.68 -16 6.36 -16 5 C-11.22386935 0.79964795 -6.27647815 -2.13667341 0 0 Z " fill="#6F9DD5" transform="translate(58,62)"/>
<path d="M0 0 C0.66 0 1.32 0 2 0 C2.33 0.66 2.66 1.32 3 2 C39.63 2.495 39.63 2.495 77 3 C76.67 4.32 76.34 5.64 76 7 C75.505 6.01 75.505 6.01 75 5 C73.65696053 5.00333092 73.65696053 5.00333092 72.28678894 5.00672913 C63.85537396 5.02675306 55.42396696 5.0419849 46.99253368 5.05181217 C42.65769119 5.05703427 38.32286831 5.06411976 33.98803711 5.07543945 C29.80593485 5.08629217 25.62385148 5.09228192 21.44173622 5.09487724 C19.84491999 5.09672718 18.24810482 5.10033955 16.65129662 5.10573006 C14.41749194 5.1129721 12.18376567 5.1139896 9.94995117 5.11352539 C8.04133553 5.11685631 8.04133553 5.11685631 6.09416199 5.12025452 C3 5 3 5 0 4 C0 2.68 0 1.36 0 0 Z " fill="#EFC98B" transform="translate(29,34)"/>
<path d="M0 0 C1.1875 2 1.1875 2 2 4 C2.66 4.33 3.32 4.66 4 5 C3.05125 4.979375 2.1025 4.95875 1.125 4.9375 C-1.90666283 4.77448174 -1.90666283 4.77448174 -4 6 C-6.3329866 6.04022391 -8.66706666 6.04320247 -11 6 C-11.33 6.99 -11.66 7.98 -12 9 C-13.93681161 9.08107583 -15.8745934 9.13922475 -17.8125 9.1875 C-18.89144531 9.22230469 -19.97039062 9.25710937 -21.08203125 9.29296875 C-24 9 -24 9 -25.88671875 7.67578125 C-27 6 -27 6 -27 3 C-25.39620659 2.94583812 -23.79188594 2.90713362 -22.1875 2.875 C-21.29417969 2.85179687 -20.40085937 2.82859375 -19.48046875 2.8046875 C-17 3 -17 3 -14 5 C-14.33 3.68 -14.66 2.36 -15 1 C-13.44033408 0.63355422 -11.87707349 0.28239138 -10.3125 -0.0625 C-9.44238281 -0.25972656 -8.57226562 -0.45695313 -7.67578125 -0.66015625 C-4.80060993 -1.02532399 -2.76595446 -0.8432788 0 0 Z " fill="#62A6F2" transform="translate(141,9)"/>
<path d="M0 0 C4.28669858 -0.02487594 8.57335795 -0.04294275 12.86010742 -0.05493164 C14.31584404 -0.05993417 15.77157571 -0.0667383 17.22729492 -0.07543945 C19.32992788 -0.087685 21.43249391 -0.09326923 23.53515625 -0.09765625 C24.797229 -0.10289307 26.05930176 -0.10812988 27.35961914 -0.11352539 C30.97671982 -0.00072599 34.43079551 0.41887318 38 1 C38 1.99 38 2.98 38 4 C24.8 4 11.6 4 -2 4 C-1.34 2.68 -0.68 1.36 0 0 Z " fill="#F4DDB2" transform="translate(27,25)"/>
<path d="M0 0 C0 0.33 0 0.66 0 1 C-17.36802839 2.45637348 -34.56994758 3.31453454 -52 3 C-51.67 2.34 -51.34 1.68 -51 1 C-48.34790039 0.60522461 -48.34790039 0.60522461 -44.84765625 0.40234375 C-43.59662109 0.32306641 -42.34558594 0.24378906 -41.05664062 0.16210938 C-39.72529503 0.08662662 -38.39391413 0.01176408 -37.0625 -0.0625 C-34.46983012 -0.21635633 -31.87736562 -0.37372685 -29.28515625 -0.53515625 C-27.55084351 -0.63389038 -27.55084351 -0.63389038 -25.78149414 -0.73461914 C-23.04553037 -0.82713446 -23.04553037 -0.82713446 -21 -2 C-13.39454112 -3.23109946 -7.13863476 -3.14939769 0 0 Z " fill="#CA5939" transform="translate(129,23)"/>
<path d="M0 0 C1.11310547 0.00451172 2.22621094 0.00902344 3.37304688 0.01367188 C6.10292101 0.02538807 8.83268174 0.04179301 11.5625 0.0625 C11.2325 1.3825 10.9025 2.7025 10.5625 4.0625 C-0.3275 4.0625 -11.2175 4.0625 -22.4375 4.0625 C-16.67231358 -1.70268642 -7.72234402 -0.05957892 0 0 Z " fill="#EBBF7A" transform="translate(94.4375,25.9375)"/>
<path d="M0 0 C2.00720923 0.28674418 4.0085944 0.61866701 6 1 C2.25 3 2.25 3 0 3 C0 3.99 0 4.98 0 6 C7.59 6.33 15.18 6.66 23 7 C23 7.33 23 7.66 23 8 C5.18 8 -12.64 8 -31 8 C-31 7.67 -31 7.34 -31 7 C-29.25976562 6.97873047 -29.25976562 6.97873047 -27.484375 6.95703125 C-12.67558362 6.79382277 -12.67558362 6.79382277 0 0 Z " fill="#CA823D" transform="translate(55,66)"/>
<path d="M0 0 C26.73 0 53.46 0 81 0 C81 0.33 81 0.66 81 1 C55.26 1.33 29.52 1.66 3 2 C2.67 5.63 2.34 9.26 2 13 C1.34 13 0.68 13 0 13 C0 8.71 0 4.42 0 0 Z " fill="#E8C07F" transform="translate(21,45)"/>
<path d="M0 0 C0.66 0.33 1.32 0.66 2 1 C1.34 1.99 0.68 2.98 0 4 C0.763125 3.67 1.52625 3.34 2.3125 3 C5 2 5 2 8 2 C5.17446016 6.23830976 2.87819112 5.97715348 -2 7 C-2 7.66 -2 8.32 -2 9 C-3.20124512 9.02505615 -4.40249023 9.0501123 -5.64013672 9.07592773 C-10.08686429 9.16993144 -14.53343307 9.27016917 -18.97998047 9.37231445 C-20.90637504 9.41569001 -22.83280871 9.45736314 -24.75927734 9.49731445 C-27.52453408 9.55495362 -30.2895935 9.61866616 -33.0546875 9.68359375 C-33.9193161 9.70030624 -34.7839447 9.71701874 -35.67477417 9.73423767 C-39.97395852 9.72159896 -39.97395852 9.72159896 -44 11 C-43.67 9.68 -43.34 8.36 -43 7 C-23.2 7.495 -23.2 7.495 -3 8 C-3 7.01 -3 6.02 -3 5 C-4.32 4.67 -5.64 4.34 -7 4 C-5.35 3.67 -3.7 3.34 -2 3 C-2 2.34 -2 1.68 -2 1 C-1.34 0.67 -0.68 0.34 0 0 Z " fill="#EAC381" transform="translate(68,21)"/>
<path d="M0 0 C0.66 0.33 1.32 0.66 2 1 C2 1.66 2 2.32 2 3 C4.64 3.66 7.28 4.32 10 5 C9.34 5.66 8.68 6.32 8 7 C4.21009839 6.78547727 1.62299209 6.38566177 -1.625 4.375 C-3.89525629 2.77276166 -3.89525629 2.77276166 -6.4375 3.125 C-9.12634754 3.96726029 -9.12634754 3.96726029 -11.9375 5.5625 C-15.25460915 7.11951042 -17.38526381 7.25819544 -21 7 C-20.484375 6.773125 -19.96875 6.54625 -19.4375 6.3125 C-17.06913936 5.14560642 -17.06913936 5.14560642 -15.52734375 3.75390625 C-10.5715326 -0.3817943 -6.34502819 -0.81197801 0 0 Z " fill="#3568C5" transform="translate(63,64)"/>
<path d="M0 0 C0 0.33 0 0.66 0 1 C-1.11375 1.2475 -2.2275 1.495 -3.375 1.75 C-4.57125 2.1625 -5.7675 2.575 -7 3 C-7.2578125 3.6703125 -7.515625 4.340625 -7.78125 5.03125 C-8.1834375 5.6809375 -8.585625 6.330625 -9 7 C-12.2578125 7.609375 -12.2578125 7.609375 -16.125 7.75 C-17.40632812 7.80671875 -18.68765625 7.8634375 -20.0078125 7.921875 C-21.48894531 7.96054688 -21.48894531 7.96054688 -23 8 C-22.34 6.68 -21.68 5.36 -21 4 C-20.01 4 -19.02 4 -18 4 C-18 3.34 -18 2.68 -18 2 C-11.93184478 0.77100654 -6.20104812 -0.27560214 0 0 Z " fill="#A7D2F9" transform="translate(149,0)"/>
<path d="M0 0 C2.45862401 -0.05383848 4.9160755 -0.09359038 7.375 -0.125 C8.42300781 -0.15013672 8.42300781 -0.15013672 9.4921875 -0.17578125 C11.32897486 -0.19344267 13.16601963 -0.10303261 15 0 C15.66 0.66 16.32 1.32 17 2 C16.05125 1.979375 15.1025 1.95875 14.125 1.9375 C11.09333717 1.77448174 11.09333717 1.77448174 9 3 C6.6670134 3.04022391 4.33293334 3.04320247 2 3 C1.67 3.99 1.34 4.98 1 6 C-2.96 6 -6.92 6 -11 6 C-11.33 5.01 -11.66 4.02 -12 3 C-8.04 3 -4.08 3 0 3 C0 2.01 0 1.02 0 0 Z " fill="#408FDF" transform="translate(128,12)"/>
<path d="M0 0 C0.99 0.99 1.98 1.98 3 3 C1.27599315 4.72400685 -1.15066807 4.57857429 -3.5 4.9375 C-7.15561714 5.51312009 -10.72862948 6.14426167 -14.3125 7.0625 C-20.74180151 8.57457647 -27.4258278 8.67085831 -34 9 C-34 8.34 -34 7.68 -34 7 C-30.60336003 5.86778668 -27.76537224 5.78235145 -24.1875 5.625 C-17.49263373 5.2708221 -11.26377959 4.16398863 -4.73046875 2.62109375 C-2 2 -2 2 0 2 C0 1.34 0 0.68 0 0 Z " fill="#DDA198" transform="translate(112,13)"/>
<path d="M0 0 C7.51491054 0.62624254 7.51491054 0.62624254 9.90625 2.46875 C12.50732755 4.3710306 14.58317083 4.69739549 17.75 5.1875 C18.73484375 5.34605469 19.7196875 5.50460938 20.734375 5.66796875 C21.85585937 5.83232422 21.85585937 5.83232422 23 6 C23 6.33 23 6.66 23 7 C15.74 7 8.48 7 1 7 C1.33 5.68 1.66 4.36 2 3 C1.34 2.01 0.68 1.02 0 0 Z " fill="#3555C3" transform="translate(138,13)"/>
<path d="M0 0 C3.96502948 0.45057153 7.35465276 1.39175857 11 3 C11 3.33 11 3.66 11 4 C2.3387414 5.25981943 -6.27001243 5.09020653 -15 5 C-15 4.67 -15 4.34 -15 4 C-14.00097656 3.79503906 -13.00195312 3.59007812 -11.97265625 3.37890625 C-10.68230469 3.10949219 -9.39195313 2.84007812 -8.0625 2.5625 C-6.77472656 2.29566406 -5.48695312 2.02882813 -4.16015625 1.75390625 C-1.15361121 1.32818384 -1.15361121 1.32818384 0 0 Z " fill="#AC4639" transform="translate(118,20)"/>
<path d="M0 0 C1.32 0.66 2.64 1.32 4 2 C4 2.99 4 3.98 4 5 C2.95199219 5.09087891 2.95199219 5.09087891 1.8828125 5.18359375 C0.97273438 5.26738281 0.06265625 5.35117187 -0.875 5.4375 C-1.77992187 5.51871094 -2.68484375 5.59992187 -3.6171875 5.68359375 C-6.01110861 5.86989285 -6.01110861 5.86989285 -8 7 C-9.54023996 7.06950541 -11.08334988 7.08452357 -12.625 7.0625 C-13.85089844 7.04896484 -13.85089844 7.04896484 -15.1015625 7.03515625 C-16.04128906 7.01775391 -16.04128906 7.01775391 -17 7 C-12.87200519 4.24800346 -8.65466252 3.75988731 -3.8359375 2.78125 C-2.90007812 2.5234375 -1.96421875 2.265625 -1 2 C-0.67 1.34 -0.34 0.68 0 0 Z " fill="#C57366" transform="translate(114,16)"/>
<path d="M0 0 C0.66 0.33 1.32 0.66 2 1 C-2.8419486 5.84968334 -6.11926409 6.7609732 -12.875 6.8125 C-14.050625 6.85020508 -14.050625 6.85020508 -15.25 6.88867188 C-17.16613555 6.94709064 -19.08311793 6.97651926 -21 7 C-21 6.34 -21 5.68 -21 5 C-18.53082549 3.76541274 -16.63024523 3.78617033 -13.875 3.625 C-10.10137286 3.32747355 -6.94912298 2.79253588 -3.4375 1.375 C-2.303125 0.92125 -1.16875 0.4675 0 0 Z " fill="#B56D43" transform="translate(85,56)"/>
<path d="M0 0 C-0.33 0.66 -0.66 1.32 -1 2 C-3.61937835 2.65710527 -6.15541314 3.18106481 -8.8125 3.625 C-9.95706665 3.82283081 -9.95706665 3.82283081 -11.12475586 4.0246582 C-17.44176677 5.04934268 -23.6027104 5.33280697 -30 5 C-30 4.67 -30 4.34 -30 4 C-29.154375 3.87882812 -28.30875 3.75765625 -27.4375 3.6328125 C-20.02832086 2.57419621 -20.02832086 2.57419621 -12.75 0.875 C-8.39910987 -0.1402077 -4.4396603 -0.18498585 0 0 Z " fill="#D78F81" transform="translate(114,17)"/>
<path d="M0 0 C0 0.33 0 0.66 0 1 C-3.3 1.33 -6.6 1.66 -10 2 C-9.67 3.32 -9.34 4.64 -9 6 C-13.29 5.34 -17.58 4.68 -22 4 C-22.33 4.66 -22.66 5.32 -23 6 C-23 5.01 -23 4.02 -23 3 C-19.63092679 0.75395119 -17.85259588 0.88876781 -13.91015625 0.99609375 C-11.96526319 1.07791629 -11.96526319 1.07791629 -10 0.5 C-6.6964843 -0.32587892 -3.39419252 -0.05656988 0 0 Z " fill="#7BC4F4" transform="translate(136,8)"/>
<path d="M0 0 C2.62561109 -0.08074203 5.24875676 -0.1403623 7.875 -0.1875 C8.99455078 -0.22520508 8.99455078 -0.22520508 10.13671875 -0.26367188 C12.3046875 -0.29296875 12.3046875 -0.29296875 16 0 C16.66 0.99 17.32 1.98 18 3 C12.06 3 6.12 3 0 3 C0 2.01 0 1.02 0 0 Z " fill="#F1CA8A" transform="translate(101,70)"/>
<path d="M0 0 C-9.47818596 2.69430667 -18.04337678 4.67886067 -28 4 C-23.04202811 0.6946854 -18.2756399 0.48431714 -12.5 -0.125 C-11.19869141 -0.27388672 -11.19869141 -0.27388672 -9.87109375 -0.42578125 C-9.03707031 -0.51472656 -8.20304687 -0.60367187 -7.34375 -0.6953125 C-6.58255859 -0.77797363 -5.82136719 -0.86063477 -5.03710938 -0.94580078 C-3 -1 -3 -1 0 0 Z " fill="#E5B4AD" transform="translate(112,15)"/>
<path d="M0 0 C4.75481646 0.57634139 7.97048212 2.55068521 12 5 C12 5.66 12 6.32 12 7 C14.64 7 17.28 7 20 7 C20 7.33 20 7.66 20 8 C12.58163669 8.69692348 6.9255648 7.79174374 1 3 C0.67 2.01 0.34 1.02 0 0 Z " fill="#C3BCBE" transform="translate(30,52)"/>
<path d="M0 0 C-0.33 0.99 -0.66 1.98 -1 3 C-6.94 3 -12.88 3 -19 3 C-18.67 2.34 -18.34 1.68 -18 1 C-12.13162837 -0.21256802 -5.96802174 -0.11051892 0 0 Z " fill="#F0D099" transform="translate(106,26)"/>
<path d="M0 0 C5.75 -0.125 5.75 -0.125 8 1 C8 1.66 8 2.32 8 3 C10.64 3.66 13.28 4.32 16 5 C15.34 5.66 14.68 6.32 14 7 C9.86169011 6.69903201 7.48152976 6.32101984 4 4 C4 3.01 4 2.02 4 1 C2.68 0.67 1.36 0.34 0 0 Z " fill="#4985D8" transform="translate(57,64)"/>
<path d="M0 0 C0.66 0.33 1.32 0.66 2 1 C1.01 2.485 1.01 2.485 0 4 C0.763125 3.67 1.52625 3.34 2.3125 3 C5 2 5 2 8 2 C6 5 6 5 3.8359375 5.73046875 C2.61777344 5.95669922 2.61777344 5.95669922 1.375 6.1875 C0.14910156 6.42533203 0.14910156 6.42533203 -1.1015625 6.66796875 C-2.04128906 6.83232422 -2.04128906 6.83232422 -3 7 C-3 6.34 -3 5.68 -3 5 C-4.32 4.67 -5.64 4.34 -7 4 C-5.35 3.67 -3.7 3.34 -2 3 C-2 2.34 -2 1.68 -2 1 C-1.34 0.67 -0.68 0.34 0 0 Z " fill="#E4AD9E" transform="translate(68,21)"/>
<path d="M0 0 C0.91007812 0.00902344 1.82015625 0.01804688 2.7578125 0.02734375 C3.45648438 0.03894531 4.15515625 0.05054688 4.875 0.0625 C4.39417969 0.67609375 3.91335937 1.2896875 3.41796875 1.921875 C1.88718832 4.04559064 1.3295402 5.51707486 0.875 8.0625 C0.2975 7.464375 -0.28 6.86625 -0.875 6.25 C-2.86607607 4.3142316 -4.86972997 2.67340717 -7.125 1.0625 C-4.60024538 -0.19987731 -2.81299534 -0.03606404 0 0 Z " fill="#CD9056" transform="translate(72.125,61.9375)"/>
<path d="M0 0 C2.08035027 4.16070054 2.19628926 5.59569904 1.9765625 10.078125 C1.925 11.23828125 1.8734375 12.3984375 1.8203125 13.59375 C1.75585938 14.8003125 1.69140625 16.006875 1.625 17.25 C1.56828125 18.47203125 1.5115625 19.6940625 1.453125 20.953125 C1.31173944 23.9693502 1.16033265 26.9847323 1 30 C-0.32 29.34 -1.64 28.68 -3 28 C-2.01 27.67 -1.02 27.34 0 27 C0 18.09 0 9.18 0 0 Z " fill="#E9B563" transform="translate(120,43)"/>
<path d="M0 0 C6.625 -0.125 6.625 -0.125 10 1 C9.67 1.99 9.34 2.98 9 4 C6.03 4 3.06 4 0 4 C0 2.68 0 1.36 0 0 Z " fill="#3D4154" transform="translate(130,14)"/>
<path d="M0 0 C3.3 0 6.6 0 10 0 C10 0.99 10 1.98 10 3 C7.25 4.1875 7.25 4.1875 4 5 C1.625 3.75 1.625 3.75 0 2 C0 1.34 0 0.68 0 0 Z " fill="#D19255" transform="translate(41,60)"/>
<path d="M0 0 C1.65 0 3.3 0 5 0 C4.01 0.66 3.02 1.32 2 2 C4.64 3.32 7.28 4.64 10 6 C10 6.66 10 7.32 10 8 C5.43545749 7.45660208 2.0271824 6.20536179 -2 4 C-1.34 3.67 -0.68 3.34 0 3 C0 2.01 0 1.02 0 0 Z " fill="#E8BF84" transform="translate(41,47)"/>
<path d="M0 0 C1.62418745 -0.08090971 3.24951745 -0.13914995 4.875 -0.1875 C5.77992187 -0.22230469 6.68484375 -0.25710938 7.6171875 -0.29296875 C8.79667969 -0.14794922 8.79667969 -0.14794922 10 0 C10.66 0.99 11.32 1.98 12 3 C8.37 3.33 4.74 3.66 1 4 C0.67 2.68 0.34 1.36 0 0 Z " fill="#4EAFEE" transform="translate(114,12)"/>
<path d="M0 0 C1.69141656 0.08963062 3.37959602 0.24577676 5.0625 0.4375 C6.44115234 0.59025391 6.44115234 0.59025391 7.84765625 0.74609375 C8.55792969 0.82988281 9.26820312 0.91367188 10 1 C10 1.33 10 1.66 10 2 C3.62542652 2.95468258 -2.56061653 3.1202324 -9 3.0625 C-9.96550781 3.05798828 -10.93101563 3.05347656 -11.92578125 3.04882812 C-14.28392089 3.03715417 -16.64192602 3.02078021 -19 3 C-19 2.67 -19 2.34 -19 2 C-17.71222656 1.93941406 -16.42445312 1.87882812 -15.09765625 1.81640625 C-13.41925841 1.73201753 -11.74087364 1.6473687 -10.0625 1.5625 C-8.78729492 1.50352539 -8.78729492 1.50352539 -7.48632812 1.44335938 C-6.67744141 1.40146484 -5.86855469 1.35957031 -5.03515625 1.31640625 C-3.91185913 1.26141968 -3.91185913 1.26141968 -2.76586914 1.20532227 C-0.97538674 1.18228937 -0.97538674 1.18228937 0 0 Z " fill="#D5904A" transform="translate(43,71)"/>
<path d="M0 0 C0.680625 0.33 1.36125 0.66 2.0625 1 C5.50840238 2.17307315 8.38397422 2.14180493 12 2 C11.01 3.32 10.02 4.64 9 6 C5.7 5.34 2.4 4.68 -1 4 C-0.67 2.68 -0.34 1.36 0 0 Z " fill="#DDDDE4" transform="translate(52,57)"/>
<path d="M0 0 C7.38461538 -0.49230769 7.38461538 -0.49230769 10.5 2 C10.995 2.66 11.49 3.32 12 4 C11.34 5.32 10.68 6.64 10 8 C9.34 7.67 8.68 7.34 8 7 C8.33 6.01 8.66 5.02 9 4 C7.68 4 6.36 4 5 4 C5 3.01 5 2.02 5 1 C3.35 1 1.7 1 0 1 C0 0.67 0 0.34 0 0 Z " fill="#DC9D56" transform="translate(101,25)"/>
<path d="M0 0 C5.62541841 0.45003347 8.61487125 1.68441485 13 5 C12.34 5.66 11.68 6.32 11 7 C9.35063087 6.21572648 7.70558873 5.42234741 6.0625 4.625 C5.14597656 4.18414062 4.22945312 3.74328125 3.28515625 3.2890625 C1 2 1 2 0 0 Z " fill="#EDE8E4" transform="translate(42,48)"/>
<path d="M0 0 C6.3097545 -0.65726609 10.04189222 1.07214838 15 5 C15 5.33 15 5.66 15 6 C11.28400809 6.20086443 10.22791555 6.1519437 7 4 C7 3.34 7 2.68 7 2 C4.69 1.67 2.38 1.34 0 1 C0 0.67 0 0.34 0 0 Z " fill="#7AB6ED" transform="translate(58,63)"/>
<path d="M0 0 C0.99 0.33 1.98 0.66 3 1 C3 1.66 3 2.32 3 3 C6.96 3 10.92 3 15 3 C15 3.33 15 3.66 15 4 C8.565 4.495 8.565 4.495 2 5 C2 5.66 2 6.32 2 7 C1.01 7 0.02 7 -1 7 C-1 3 -1 3 0 0 Z " fill="#B9BBC5" transform="translate(62,56)"/>
<path d="M0 0 C0 0.33 0 0.66 0 1 C-4.98283716 2.14051606 -9.94468132 3.22225866 -15 4 C-15.33 3.34 -15.66 2.68 -16 2 C-5.62642369 -1.62870159 -5.62642369 -1.62870159 0 0 Z " fill="#DA8252" transform="translate(82,26)"/>
<path d="M0 0 C5.28137429 0.51525603 8.57221156 2.25477117 13 5 C10.313538 6.343231 9.30702886 5.67960047 6.5 4.75 C5.7059375 4.49734375 4.911875 4.2446875 4.09375 3.984375 C2 3 2 3 0 0 Z " fill="#E0D9D3" transform="translate(35,50)"/>
<path d="M0 0 C5.15171623 -0.09038099 9.91913204 0.15318867 15 1 C13 3 13 3 9.75 3.25 C6.1318718 3.00879145 3.36104678 2.31162801 0 1 C0 0.67 0 0.34 0 0 Z " fill="#384D9A" transform="translate(124,21)"/>
<path d="M0 0 C1.98 0.495 1.98 0.495 4 1 C4 2.32 4 3.64 4 5 C2.68 5.33 1.36 5.66 0 6 C-1.125 2.25 -1.125 2.25 0 0 Z " fill="#DC9E57" transform="translate(57,54)"/>
<path d="M0 0 C1.67180274 0.94934513 3.33733936 1.90973313 5 2.875 C5.928125 3.40867188 6.85625 3.94234375 7.8125 4.4921875 C8.8953125 5.23855469 8.8953125 5.23855469 10 6 C10 6.66 10 7.32 10 8 C5.49197399 6.74194623 2.5087188 5.09592835 -1 2 C-0.67 1.34 -0.34 0.68 0 0 Z " fill="#E4B273" transform="translate(34,50)"/>
<path d="M0 0 C0.928125 0.20625 1.85625 0.4125 2.8125 0.625 C1.47916667 1.29166667 0.14583333 1.95833333 -1.1875 2.625 C-1.826875 2.99625 -2.46625 3.3675 -3.125 3.75 C-5.59859822 4.79940531 -7.52703538 4.77280359 -10.1875 4.625 C-3.54166667 -0.41666667 -3.54166667 -0.41666667 0 0 Z " fill="#A86A41" transform="translate(58.1875,66.375)"/>
<path d="M0 0 C0 0.33 0 0.66 0 1 C-1.7290774 1.02725341 -3.45828176 1.04650987 -5.1875 1.0625 C-6.63189453 1.07990234 -6.63189453 1.07990234 -8.10546875 1.09765625 C-10.85576513 1.00486622 -13.32479591 0.62111685 -16 0 C-16 -0.33 -16 -0.66 -16 -1 C-14.27277272 -1.22384382 -12.54303993 -1.42839969 -10.8125 -1.625 C-9.36810547 -1.79902344 -9.36810547 -1.79902344 -7.89453125 -1.9765625 C-4.75924677 -2.00194942 -2.80513465 -1.34359283 0 0 Z " fill="#2874D7" transform="translate(134,19)"/>
<path d="M0 0 C7.50769231 0.61538462 7.50769231 0.61538462 10 2.5625 C10.33 3.036875 10.66 3.51125 11 4 C5.62694301 4.35233161 5.62694301 4.35233161 3 4 C1 2 1 2 0 0 Z " fill="#3A67D7" transform="translate(138,13)"/>
<path d="M0 0 C1.32 0.33 2.64 0.66 4 1 C4 2.32 4 3.64 4 5 C1.69 5 -0.62 5 -3 5 C-2.01 3.35 -1.02 1.7 0 0 Z " fill="#D5964B" transform="translate(74,68)"/>
<path d="M0 0 C-3.87564767 3.61139896 -3.87564767 3.61139896 -6 5 C-8.375 4.8125 -8.375 4.8125 -10 4 C-10 3.34 -10 2.68 -10 2 C-8.71211992 1.46987262 -7.41953322 0.9511671 -6.125 0.4375 C-5.40570313 0.14746094 -4.68640625 -0.14257812 -3.9453125 -0.44140625 C-2 -1 -2 -1 0 0 Z " fill="#CE8548" transform="translate(87,57)"/>
<path d="M0 0 C3.68754757 0.49831724 5.60490662 1.10067643 8 4 C6.02 4 4.04 4 2 4 C1.34 2.68 0.68 1.36 0 0 Z " fill="#D7CCC5" transform="translate(30,52)"/>
<path d="M0 0 C1.32 0 2.64 0 4 0 C3.67 1.65 3.34 3.3 3 5 C2.01 5.33 1.02 5.66 0 6 C-1 3 -1 3 0 0 Z " fill="#D98035" transform="translate(106,29)"/>
<path d="M0 0 C0.99 0.33 1.98 0.66 3 1 C2.67 1.66 2.34 2.32 2 3 C1.64830932 4.32860925 1.31229724 5.66158328 1 7 C-0.32 5.35 -1.64 3.7 -3 2 C-2.01 1.34 -1.02 0.68 0 0 Z " fill="#CA9D6D" transform="translate(72,63)"/>
<path d="M0 0 C-0.61875 0.28875 -1.2375 0.5775 -1.875 0.875 C-4.13325765 1.93720042 -4.13325765 1.93720042 -6 4 C-8.125 3.625 -8.125 3.625 -10 3 C-6.48812804 0.59185923 -4.27343092 -0.36629408 0 0 Z " fill="#E8BEB9" transform="translate(78,21)"/>
</svg>
